HIERARCHY
ROOT hip
{
	OFFSET 0.000000 0.000000 0.000000 
	CHANNELS 6 Xposition Yposition Zposition Xrotation Zrotation Yrotation
	JOINT abdomen
	{
		OFFSET 0.000000 3.402643 0.000000 
		CHANNELS 3 Xrotation Zrotation Yrotation
		JOINT chest
		{
			OFFSET 0.000000 8.438565 -0.680529 
			CHANNELS 3 Xrotation Zrotation Yrotation
			JOINT neck
			{
				OFFSET 0.000000 10.207942 -0.272212 
				CHANNELS 3 Xrotation Zrotation Yrotation
				JOINT head
				{
					OFFSET 0.000000 3.130431 0.000000 
					CHANNELS 3 Xrotation Zrotation Yrotation
					End Site
					{
						OFFSET 0.000000 3.130435 0.000000 
					}
				}
			}
			JOINT lCollar
			{
				OFFSET 3.470700 6.669187 -0.816635 
				CHANNELS 3 Yrotation Zrotation Xrotation
				JOINT lShldr
				{
					OFFSET 3.198488 0.000000 0.000000 
					CHANNELS 3 Zrotation Yrotation Xrotation
					JOINT lForeArm
					{
						OFFSET 10.139888 0.000000 0.000000 
						CHANNELS 3 Yrotation Zrotation Xrotation
						JOINT lHand
						{
							OFFSET 8.370511 0.000000 0.000000 
							CHANNELS 3 Zrotation Yrotation Xrotation
							End Site
							{
								OFFSET 4.083176 0.000000 0.000000 
							}
						}
					}
				}
			}
			JOINT rCollar
			{
				OFFSET -3.470700 6.669187 -0.816635 
				CHANNELS 3 Yrotation Zrotation Xrotation
				JOINT rShldr
				{
					OFFSET -3.198488 0.000000 0.000000 
					CHANNELS 3 Zrotation Yrotation Xrotation
					JOINT rForeArm
					{
						OFFSET -10.139888 0.000000 0.000000 
						CHANNELS 3 Yrotation Zrotation Xrotation
						JOINT rHand
						{
							OFFSET -8.370511 0.000000 0.000000 
							CHANNELS 3 Zrotation Yrotation Xrotation
							End Site
							{
								OFFSET -4.083176 0.000000 0.000000 
							}
						}
					}
				}
			}
		}
	}
	JOINT lThigh
	{
		OFFSET 5.308129 -1.633274 1.361059 
		CHANNELS 3 Xrotation Zrotation Yrotation
		JOINT lShin
		{
			OFFSET -2.041588 -20.007561 0.000000 
			CHANNELS 3 Xrotation Zrotation Yrotation
			JOINT lFoot
			{
				OFFSET 0.000000 -19.190928 -1.224953 
				CHANNELS 3 Xrotation Yrotation Zrotation
				End Site
				{
					OFFSET 0.000000 -2.449906 4.627600 
				}
			}
		}
	}
	JOINT rThigh
	{
		OFFSET -5.308129 -1.633274 1.361059 
		CHANNELS 3 Xrotation Zrotation Yrotation
		JOINT rShin
		{
			OFFSET 2.041588 -20.007561 0.000000 
			CHANNELS 3 Xrotation Zrotation Yrotation
			JOINT rFoot
			{
				OFFSET 0.000000 -19.190928 -1.224953 
				CHANNELS 3 Xrotation Yrotation Zrotation
				End Site
				{
					OFFSET 0.000000 -2.449906 4.627600 
				}
			}
		}
	}
}
MOTION
Frames: 10
Frame Time: 0.016667
0.343302 41.154572 -11.534958 -1.835960 -0.292818 -2.959360 -17.656900 3.424390 2.216360 16.818001 3.790770 1.315520 18.427799 -2.242170 5.662060 14.000800 5.847040 3.071080 2.000000 -2.000000 0.000000 -81.921600 -20.545401 -171.134003 131.835999 -0.117142 0.118935 0.045251 -0.014066 -141.951004 -2.000000 2.000000 0.000000 82.161301 23.857800 -159.238007 -136.093994 0.123380 0.078284 -0.060980 0.045475 -153.386993 -32.711136 2.332033 1.730199 70.310776 0.266555 4.382757 -12.626268 3.892842 0.977004 -11.147061 -1.249788 0.620510 48.232761 -2.250144 -3.253072 -29.288132 0.847684 0.139040 
0.747598 41.409073 -12.060139 -1.943360 0.107360 -4.329810 -17.592100 3.396430 2.003230 17.012800 4.015770 1.207190 18.642200 -2.809140 6.405060 14.019000 5.779330 3.442130 2.000000 -2.000000 0.000000 98.077698 -159.158997 7.753740 131.464996 -0.117851 0.119565 0.045086 -0.012049 -141.227997 -2.000000 2.000000 0.000000 82.071999 22.412600 -159.289993 -135.283005 0.124635 0.079569 -0.061011 0.045580 -153.425995 -30.487062 2.583970 1.645817 73.290962 0.059946 4.448306 -11.162385 3.305168 0.900191 -11.579165 -2.047815 1.855171 47.396740 -2.309030 -3.208858 -28.075640 1.436127 0.432925 
1.180821 41.606228 -12.529712 -2.099630 0.243977 -5.839020 -17.573299 3.388860 1.955370 17.159500 4.055390 1.195620 18.889799 -3.267240 7.121640 14.037900 5.740470 3.788890 2.000000 -2.000000 0.000000 97.872398 -159.167007 6.952940 131.319000 -0.118132 0.119813 0.045072 -0.011858 -141.160004 -2.000000 2.000000 0.000000 82.119301 20.830700 -159.322998 -134.414001 0.126000 0.080927 -0.060749 0.044687 -153.093994 -27.590994 2.942638 1.752889 74.652428 -0.013595 4.458584 -8.248027 2.898707 0.840583 -11.960226 -2.429920 3.413053 46.530800 -2.367183 -3.154433 -26.837433 1.559440 0.473786 
1.614053 41.803493 -12.999287 -2.255910 0.370806 -7.348590 -17.554501 3.394030 1.913730 17.316000 4.085280 1.175720 19.130699 -3.741610 7.828030 14.057000 5.711240 4.127570 2.000000 -2.000000 0.000000 97.676804 -159.175003 6.161910 131.162003 -0.118432 0.120076 0.045060 -0.011695 -141.100998 -2.000000 2.000000 0.000000 82.176598 19.258499 -159.348999 -133.544998 0.127386 0.082264 -0.060485 0.043767 -152.751999 -24.698986 3.275552 1.904761 76.197304 -0.034397 4.444858 -5.490509 2.551147 0.737940 -12.419253 -2.793488 4.939990 45.710915 -2.460141 -3.082556 -25.587244 1.699040 0.510248 
2.078212 41.939301 -13.411679 -2.304780 0.507402 -8.770420 -17.624901 3.408820 1.813820 17.462500 4.183370 1.141850 19.278099 -4.429020 8.541490 14.034900 5.586610 4.484510 2.000000 -2.000000 0.000000 97.286102 -159.261002 5.575780 131.250000 -0.118263 0.119928 0.045031 -0.011285 -140.955002 -2.000000 2.000000 0.000000 82.204597 17.715500 -159.343002 -132.852005 0.128506 0.083316 -0.060205 0.042767 -152.380997 -21.544281 3.380724 2.220314 75.782410 0.068417 4.412406 -1.611535 3.063499 0.655304 -12.931984 -3.260911 6.239112 45.022781 -2.498339 -3.053231 -24.510338 1.861930 0.538681 
2.542383 42.075104 -13.824072 -2.363440 0.653740 -10.193000 -17.704700 3.417550 1.725490 17.608999 4.271710 1.108980 19.420200 -5.114450 9.252310 14.003100 5.462140 4.829900 2.000000 -2.000000 0.000000 96.885696 -159.337997 4.979900 131.337997 -0.118094 0.119780 0.045002 -0.010876 -140.807999 -2.000000 2.000000 0.000000 82.223099 16.182199 -159.326996 -132.149002 0.129655 0.084368 -0.059924 0.041738 -152.000000 -18.445665 3.466112 2.529588 75.454475 0.195814 4.372981 2.225856 3.583944 0.554962 -13.495206 -3.697855 7.518710 44.370583 -2.569316 -2.996422 -23.411810 2.014601 0.579568 
2.991365 42.114971 -14.253767 -2.216950 0.663566 -10.982700 -17.717501 3.275410 1.401240 17.981100 4.273040 0.951082 19.457001 -5.615140 9.925870 14.021000 5.375220 5.177900 2.000000 -2.000000 0.000000 96.797302 -158.955994 4.375280 131.406998 -0.117963 0.119665 0.044964 -0.010303 -140.602997 -2.000000 2.000000 0.000000 82.603600 15.216100 -159.632004 -131.651001 0.130476 0.085105 -0.059839 0.041421 -151.882996 -15.602669 3.574648 2.766093 73.761726 0.448789 4.277172 5.508321 5.167283 0.255228 -14.342253 -3.970510 8.379872 44.036438 -2.581842 -2.978410 -22.435102 2.111742 0.539756 
3.440370 42.154831 -14.683574 -2.080220 0.673384 -11.762700 -17.729601 3.133260 1.077580 18.343500 4.264410 0.792836 19.476500 -6.114670 10.609800 14.029400 5.298110 5.526620 2.000000 -2.000000 0.000000 96.718697 -158.582993 3.764440 131.475006 -0.117832 0.119549 0.044927 -0.009703 -140.389008 -2.000000 2.000000 0.000000 82.993896 14.250000 -159.936996 -131.153000 0.131304 0.085835 -0.059755 0.041104 -151.764999 -12.703773 3.677603 2.978667 71.992020 0.687189 4.199582 8.820929 6.691592 -0.124625 -15.154047 -4.225765 9.244732 43.691452 -2.608393 -2.956181 -21.487162 2.191854 0.522458 
3.885274 42.081787 -15.110346 -1.836210 0.985822 -11.887100 -17.937201 3.048610 0.767244 18.440300 4.635520 0.639996 19.843901 -6.241610 11.010300 14.197600 5.371930 5.731470 2.000000 -2.000000 0.000000 96.513100 -158.037003 3.921990 131.406998 -0.117963 0.119665 0.044922 -0.009621 -140.358994 -2.000000 2.000000 0.000000 83.160004 13.051000 -160.906998 -130.645004 0.132154 0.086572 -0.059547 0.040310 -151.473007 -10.234801 3.433136 3.221953 68.907410 1.017522 4.064336 8.562850 7.584637 -0.158895 -16.268419 -4.816027 9.769032 43.977951 -2.578241 -2.977950 -21.027828 2.091113 0.394390 
4.330201 42.008610 -15.537344 -1.592200 1.288560 -12.008500 -18.153999 2.963720 0.456292 18.527399 5.006640 0.487572 20.202200 -6.376050 11.416800 14.365800 5.445620 5.937670 2.000000 -2.000000 0.000000 96.307503 -157.490005 4.079530 131.348007 -0.118076 0.119764 0.044915 -0.009512 -140.320007 -2.000000 2.000000 0.000000 83.345703 11.852100 -161.886002 -130.147003 0.132995 0.087287 -0.059336 0.039489 -151.169998 -7.727132 3.199230 3.444850 65.843132 1.331357 3.945337 8.242060 8.418794 -0.161980 -17.340853 -5.403204 10.315902 44.254192 -2.557477 -3.003529 -20.607368 1.990206 0.268371 
